<svg width="305" height="225" xmlns="http://www.w3.org/2000/svg">
	<g>
		<!-- First row -->
		<line y2="21" x2="272" y1="21" x1="26" stroke-width="1" stroke="#000" fill="none"></line>
		<ellipse ry="2" rx="2" cy="21" cx="26" stroke-width="1" stroke="#000" fill="#000000"></ellipse>
		<ellipse ry="2" rx="2" cy="21" cx="149" stroke-width="1" stroke="#000" fill="#000000"></ellipse>
		<ellipse ry="2" rx="2" cy="21" cx="272" stroke-width="1" stroke="#000" fill="#000000"></ellipse>
		
		<!-- Second row -->
		<line y2="84" x2="272" y1="84" x1="67" stroke-width="1" stroke="#000" fill="none"></line>
		<ellipse ry="2" rx="2" cy="84" cx="67" stroke-width="1" stroke="#000" fill="#000000"></ellipse>
		<ellipse ry="2" rx="2" cy="84" cx="170" stroke-width="1" stroke="#000" fill="#000000"></ellipse>
		<ellipse ry="2" rx="2" cy="84" cx="272" stroke-width="1" stroke="#000" fill="#000000"></ellipse>
		
		<!-- Third row -->
		<line y2="145" x2="272" y1="145" x1="108" stroke-width="1" stroke="#000" fill="none"></line>
		<ellipse ry="2" rx="2" cy="145" cx="108" stroke-width="1" stroke="#000" fill="#000000"></ellipse>
		<ellipse ry="2" rx="2" cy="145" cx="190" stroke-width="1" stroke="#000" fill="#000000"></ellipse>
		<ellipse ry="2" rx="2" cy="145" cx="272" stroke-width="1" stroke="#000" fill="#000000"></ellipse>
		
		<!-- Fourth row -->
		<line y2="209" x2="272" y1="209" x1="150" stroke-width="1" stroke="#000" fill="none"></line>
		<ellipse ry="2" rx="2" cy="209" cx="150" stroke-width="1" stroke="#000" fill="#000000"></ellipse>
		<ellipse ry="2" rx="2" cy="209" cx="272" stroke-width="1" stroke="#000" fill="#000000"></ellipse>
		
		<!-- Diagonals -->
		<line y2="210" x2="151" y1="21" x1="25" stroke-width="1" stroke="#000" fill="none"></line>
		<line y2="209" x2="211" y1="21" x1="149" stroke-width="1" stroke="#000" fill="none"></line>
		<line y2="21" x2="272" y1="210" x1="272" stroke-width="1" stroke="#000" fill="none"></line>
	</g>
</svg>