 <svg version="1.0" xmlns="http://www.w3.org/2000/svg" width="700.000000pt" height="490.000000pt" viewBox="0 0 700.000000 490.000000" preserveAspectRatio="xMidYMid meet">
<metadata>
Created by potrace 1.12, written by Peter Selinger 2001-2015
</metadata>
<g transform="translate(0.000000,490.000000) scale(0.100000,-0.100000)" fill="#000000" stroke="none">
<path d="M1349 4218 c-39 -33 -42 -46 -20 -77 15 -20 32 -31 53 -33 26 -2 39
-14 76 -68 112 -162 328 -482 337 -498 6 -9 67 -100 136 -202 255 -374 261
-383 250 -402 -6 -10 -11 -25 -11 -33 0 -24 38 -55 68 -55 24 0 41 -21 159
-198 73 -108 190 -282 261 -387 71 -104 182 -269 247 -365 123 -184 141 -207
150 -198 5 5 -121 196 -559 843 -86 127 -170 249 -186 273 -25 35 -29 50 -24
77 7 39 -21 75 -60 75 -17 0 -31 13 -57 55 -19 30 -91 140 -161 243 -70 103
-189 279 -265 392 -76 113 -178 263 -226 333 -78 115 -87 132 -81 161 5 28 1
37 -21 55 -32 24 -45 26 -66 9z m48 -44 c3 -8 1 -20 -6 -27 -14 -14 -47 15
-37 32 10 16 36 13 43 -5z m850 -1260 c3 -8 1 -20 -6 -27 -14 -14 -47 15 -37
32 10 16 36 13 43 -5z"></path>
<path d="M3920 4223 c-21 -7 -40 -34 -40 -55 0 -25 36 -58 63 -58 51 0 74 63
37 100 -20 20 -33 23 -60 13z m48 -56 c4 -20 -25 -34 -40 -19 -15 15 -1 44 19
40 10 -2 19 -11 21 -21z"></path>
<path d="M6464 4205 c-28 -28 -26 -60 7 -84 18 -13 19 -34 19 -578 l0 -565
-25 -30 c-14 -16 -25 -33 -25 -38 0 -5 11 -22 25 -38 l25 -30 0 -577 c0 -556
-1 -577 -19 -593 -33 -29 -35 -59 -7 -86 l26 -23 0 -595 0 -595 -25 -23 c-31
-29 -31 -44 0 -75 31 -31 49 -31 80 0 32 31 31 50 0 79 l-25 23 0 593 0 593
25 23 c32 29 32 49 0 79 l-26 23 1 578 0 578 25 26 c31 33 31 45 0 74 l-26 24
1 568 c0 547 1 569 19 584 33 26 35 57 7 85 -14 14 -32 25 -41 25 -9 0 -27
-11 -41 -25z m64 -38 c4 -20 -25 -34 -40 -19 -15 15 -1 44 19 40 10 -2 19 -11
21 -21z m0 -1260 c4 -20 -25 -34 -40 -19 -15 15 -1 44 19 40 10 -2 19 -11 21
-21z m0 -1280 c4 -20 -25 -34 -40 -19 -15 15 -1 44 19 40 10 -2 19 -11 21 -21z
m0 -1310 c4 -20 -25 -34 -40 -19 -15 15 -1 44 19 40 10 -2 19 -11 21 -21z"></path>
<path d="M2160 4210 c0 -7 202 -10 585 -10 383 0 585 3 585 10 0 7 -202 10
-585 10 -383 0 -585 -3 -585 -10z"></path>
<path d="M4580 4210 c0 -7 208 -10 605 -10 397 0 605 3 605 10 0 7 -208 10
-605 10 -397 0 -605 -3 -605 -10z"></path>
<path d="M3970 4070 c0 -5 41 -134 91 -287 50 -153 120 -366 155 -473 35 -107
68 -203 74 -212 5 -10 10 -26 10 -35 0 -10 7 -31 15 -47 19 -36 19 -55 -1 -77
-24 -27 -10 -67 29 -84 30 -13 35 -22 82 -169 45 -141 65 -184 65 -141 0 18
-75 249 -92 282 -9 18 -8 27 5 41 31 34 20 71 -27 100 -28 17 -51 79 -226 622
-22 69 -44 132 -49 140 -5 9 -12 31 -16 50 -4 19 -11 41 -16 50 -4 8 -24 68
-45 133 -20 64 -40 117 -45 117 -5 0 -9 -4 -9 -10z m410 -1145 c15 -18 6 -45
-13 -45 -8 0 -20 7 -27 15 -10 12 -10 18 0 30 16 19 24 19 40 0z"></path>
<path d="M2870 2920 c0 -7 158 -10 455 -10 297 0 455 3 455 10 0 7 -158 10
-455 10 -297 0 -455 -3 -455 -10z"></path>
<path d="M4920 2920 c0 -7 163 -10 470 -10 307 0 470 3 470 10 0 7 -163 10
-470 10 -307 0 -470 -3 -470 -10z"></path>
<path d="M4630 2077 c0 -15 56 -184 69 -207 5 -9 12 -31 16 -50 4 -19 11 -39
15 -45 4 -5 10 -22 14 -37 9 -41 29 -36 21 5 -4 17 -11 37 -15 42 -4 6 -10 24
-14 40 -8 34 -53 162 -65 185 -5 9 -12 30 -16 48 -6 31 -25 45 -25 19z"></path>
<path d="M4750 1665 c-27 -43 -19 -72 24 -90 27 -12 34 -23 54 -87 13 -40 34
-104 48 -143 14 -38 28 -76 30 -84 3 -10 8 -11 15 -4 8 8 7 20 -5 44 -9 18
-16 38 -16 45 0 7 -6 28 -14 46 -7 18 -22 58 -31 88 -10 30 -22 60 -27 67 -6
8 -3 23 8 42 24 41 11 80 -33 98 -31 12 -32 12 -53 -22z m60 -20 c15 -18 6
-45 -15 -45 -18 0 -30 24 -21 45 7 19 20 19 36 0z"></path>
<path d="M3057 1661 c-23 -39 -22 -48 9 -76 19 -18 33 -23 50 -19 13 3 24 2
24 -3 0 -5 28 -51 63 -102 34 -51 69 -103 77 -116 8 -12 51 -76 96 -141 44
-66 147 -218 229 -339 81 -121 190 -281 241 -356 52 -76 94 -142 94 -148 0 -6
-5 -20 -12 -30 -9 -15 -8 -24 6 -46 9 -14 24 -29 32 -32 23 -9 63 14 76 42 10
22 8 29 -17 55 -15 16 -37 30 -49 32 -14 2 -50 47 -116 144 -52 78 -140 209
-195 290 -56 82 -181 268 -280 414 -98 146 -194 284 -213 308 -26 32 -32 46
-23 55 17 17 13 55 -9 77 -29 29 -62 25 -83 -9z m71 -34 c4 -20 -25 -34 -40
-19 -15 15 -1 44 19 40 10 -2 19 -11 21 -21z m880 -1310 c4 -20 -25 -34 -40
-19 -15 15 -1 44 19 40 10 -2 19 -11 21 -21z"></path>
<path d="M3795 1651 c-12 -20 24 -23 251 -20 179 3 234 7 234 17 0 9 -55 12
-239 12 -137 0 -242 -4 -246 -9z"></path>
<path d="M5335 1651 c-3 -5 -2 -12 3 -15 5 -3 137 -5 295 -4 237 0 287 3 287
14 0 12 -50 14 -289 14 -168 0 -292 -4 -296 -9z"></path>
<path d="M5070 791 c0 -6 11 -39 25 -73 14 -34 25 -66 25 -71 0 -5 6 -23 14
-40 7 -18 21 -52 31 -77 10 -25 24 -59 31 -77 8 -17 14 -35 14 -41 0 -5 7 -22
14 -38 8 -15 12 -32 9 -37 -3 -5 -125 -8 -299 -6 -191 3 -295 0 -296 -6 -2 -7
221 -11 650 -13 518 -2 652 0 652 10 0 10 -70 12 -331 10 -214 -2 -335 0 -342
7 -5 5 -18 32 -28 58 -9 26 -27 73 -39 103 -12 30 -25 66 -30 80 -48 139 -79
215 -89 218 -6 2 -11 -1 -11 -7z"></path>
</g>
</svg>